<?xml version="1.0" encoding="utf-8"?>
<svg xmlns="http://www.w3.org/2000/svg" height="60" viewBox="0 0 320 60" width="320">
  <path clip-rule="evenodd" d="M314.805 4.1h.546c.624 0 1.151-.228 1.151-.811 0-.418-.301-.833-1.151-.833-.243 0-.412.02-.546.038v1.605Zm0 2.627h-.751V1.984c.393-.06.77-.114 1.335-.114.717 0 1.188.153 1.471.36.284.207.434.526.434.98 0 .625-.412 1.004-.924 1.154v.039c.417.076.697.45.791 1.152.115.737.226 1.022.303 1.172h-.793c-.112-.15-.225-.587-.32-1.21-.114-.605-.412-.832-1.018-.832h-.528v2.042Zm.793-6.065c-1.866 0-3.391 1.61-3.391 3.59 0 2.02 1.524 3.61 3.409 3.61 1.886.015 3.392-1.59 3.392-3.593 0-1.997-1.506-3.607-3.392-3.607h-.018Zm.018-.662c2.321 0 4.165 1.891 4.165 4.252 0 2.398-1.844 4.27-4.183 4.27-2.319 0-4.202-1.872-4.202-4.27 0-2.36 1.883-4.252 4.202-4.252h.018Zm-23.672 30.234 16.912-28.243h-14.067l-9.999 18.32-9.833-18.32h-14.4l16.741 28.406-17.498 29.39h14.065l10.671-19.389 10.588 19.39h14.401l-17.581-29.554ZM221.895 1.663l-21.218 58.125h12.759l4.276-12.448h19.861l4.36 12.447h13.093L233.808 1.663h-11.913Zm11.826 34.722h-12.156l6.118-17.692 6.038 17.692ZM177.789 1.991 165.018 20.72 152.082 1.99h-.145l-12.985 25.191v32.606h12.307V23.998l13.3 17.737.069.119h.532l13.453-18.019v35.953h12.391V1.99h-13.215ZM69.442 48.587V36.284H92.08v-11.2H69.44V13.191h25.742V1.99h-38.3v57.797h23.76l5.772-11.2H69.442Zm-26.027-27.27v-.328c0-5.582-1.736-10.227-5.018-13.434C34.676 3.921 29.107 2 22.294 2H0v57.797h12.642V40.96h7.247l10.816 18.836h14.479l-12.569-21.42c4.986-2.22 10.8-6.973 10.8-17.06Zm-12.726.236v.082c0 5.236-3.483 8.362-9.317 8.362h-8.73V13.191h8.479c6.26 0 9.568 2.892 9.568 8.362Z" fill="#DC1C2E" fill-rule="evenodd"/>
  <path clip-rule="evenodd" d="M123.392 1.99 93.608 59.788h15.354l29.79-57.798h-15.36Z" fill="#003DA5" fill-rule="evenodd"/>
</svg>